<svg width="20" height="20" viewBox="0 0 20 20" fill="none" xmlns="http://www.w3.org/2000/svg">
            <path d="M18.3333 9.08463V3.41797C18.3333 2.16797 17.8 1.66797 16.475 1.66797H13.1083C11.7833 1.66797 11.25 2.16797 11.25 3.41797V9.08463C11.25 10.3346 11.7833 10.8346 13.1083 10.8346H16.475C17.8 10.8346 18.3333 10.3346 18.3333 9.08463Z" stroke="currentColor" stroke-linecap="round" stroke-linejoin="round"/>
            <path d="M18.3333 16.582V15.082C18.3333 13.832 17.8 13.332 16.475 13.332H13.1083C11.7833 13.332 11.25 13.832 11.25 15.082V16.582C11.25 17.832 11.7833 18.332 13.1083 18.332H16.475C17.8 18.332 18.3333 17.832 18.3333 16.582Z" stroke="currentColor" stroke-linecap="round" stroke-linejoin="round"/>
            <path d="M8.74935 10.918V16.5846C8.74935 17.8346 8.21602 18.3346 6.89102 18.3346H3.52435C2.19935 18.3346 1.66602 17.8346 1.66602 16.5846V10.918C1.66602 9.66797 2.19935 9.16797 3.52435 9.16797H6.89102C8.21602 9.16797 8.74935 9.66797 8.74935 10.918Z" stroke="currentColor" stroke-linecap="round" stroke-linejoin="round"/>
            <path d="M8.74935 3.41797V4.91797C8.74935 6.16797 8.21602 6.66797 6.89102 6.66797H3.52435C2.19935 6.66797 1.66602 6.16797 1.66602 4.91797V3.41797C1.66602 2.16797 2.19935 1.66797 3.52435 1.66797H6.89102C8.21602 1.66797 8.74935 2.16797 8.74935 3.41797Z" stroke="currentColor" stroke-linecap="round" stroke-linejoin="round"/>
            </svg>
