<svg width="20" height="20" viewBox="0 0 20 20" fill="none" xmlns="http://www.w3.org/2000/svg">
<path d="M18.3327 9.9987V14.1654C18.3327 16.6654 16.666 18.332 14.166 18.332H5.83268C3.33268 18.332 1.66602 16.6654 1.66602 14.1654V9.9987C1.66602 7.73203 3.03268 6.1487 5.15768 5.88203C5.37435 5.8487 5.59935 5.83203 5.83268 5.83203H14.166C14.3827 5.83203 14.591 5.84035 14.791 5.87369C16.941 6.12369 18.3327 7.71536 18.3327 9.9987Z" stroke="currentColor" stroke-width="1.5" stroke-linecap="round" stroke-linejoin="round"/>
<path d="M14.7935 5.8763C14.5935 5.84297 14.3852 5.83464 14.1685 5.83464H5.83516C5.60182 5.83464 5.37682 5.85131 5.16016 5.88464C5.27682 5.65131 5.44349 5.43464 5.64349 5.23464L8.35182 2.51797C9.49349 1.38464 11.3435 1.38464 12.4852 2.51797L13.9435 3.99299C14.4768 4.51799 14.7602 5.18463 14.7935 5.8763Z" stroke="currentColor" stroke-width="1.5" stroke-linecap="round" stroke-linejoin="round"/>
<path d="M18.3327 10.418H15.8327C14.916 10.418 14.166 11.168 14.166 12.0846C14.166 13.0013 14.916 13.7513 15.8327 13.7513H18.3327" stroke="currentColor" stroke-width="1.5" stroke-linecap="round" stroke-linejoin="round"/>
</svg>
